<?xml version="1.0" encoding="UTF-8"?>
<svg xmlns="http://www.w3.org/2000/svg" version="1.1" viewBox="0 0 144 90">
  <defs>
    <style>
      .cls-1 {
        fill: #708090;
      }

      .cls-2 {
        fill: #a8cbb7;
      }

      .cls-3 {
        fill: #dcc48e;
      }
    </style>
  </defs>
  <!-- Generator: Adobe Illustrator 28.7.5, SVG Export Plug-In . SVG Version: 1.2.0 Build 176)  -->
  <g>
    <g id="Calque_1">
      <polygon class="cls-3" points="47.7 27.4 11.6 27.4 11.6 34.3 25.7 34.3 25.7 75 33.5 75 33.5 34.3 47.7 34.3 47.7 27.4"/>
      <path class="cls-3" d="M73.1,45.1c-1.2-2-2.9-3.4-5.3-4.3-2.3-.9-5.3-1.4-8.9-1.4s-2.3,0-3.6,0c-1.2,0-2.4,0-3.6.2-1.2,0-2.2.1-3.2.2v6.6c1.1,0,2.3-.2,3.8-.2,1.4,0,2.9-.1,4.3-.2,1.5,0,2.8,0,4,0,2.2,0,3.9.6,5,1.7,1.1,1.1,1.7,2.8,1.7,5v.7h-8c-3.1,0-5.7.4-8,1.2-2.2.8-3.9,2.1-5.1,3.7-1.2,1.7-1.8,3.7-1.8,6.3s.5,4.4,1.6,6.2c1,1.7,2.5,3,4.4,3.9,1.9.9,4.2,1.3,6.7,1.3s4.6-.4,6.3-1.3c1.7-.9,3.1-2.2,4-3.9.4-.8.8-1.6,1.1-2.5v6.8h6.1v-22c0-3.3-.6-5.9-1.7-7.9ZM63.2,69.5c-1.2.5-2.5.8-3.9.8-2.3,0-4.1-.5-5.3-1.6-1.2-1.1-1.8-2.5-1.8-4.3s.6-3.2,1.8-4.3c1.2-1.1,3-1.7,5.3-1.7h8.2v3.7c0,2.1-.5,3.8-1.3,5-.8,1.2-1.8,2-3,2.5Z"/>
      <g>
        <path class="cls-3" d="M128.1,35c1.6,0,2.8-.4,3.6-1.2.8-.8,1.1-1.9,1.1-3.2s-.4-2.3-1.1-3.2c-.8-.8-1.9-1.3-3.6-1.3s-2.7.4-3.5,1.3c-.8.8-1.1,1.9-1.1,3.2s.4,2.4,1.1,3.2c.8.8,1.9,1.2,3.5,1.2Z"/>
        <polygon class="cls-3" points="125.7 39.9 120.5 39.9 120.5 45.7 125.7 45.7 125.7 75 133.3 75 133.3 45.7 133.3 39.9 125.7 39.9"/>
      </g>
      <g>
        <rect class="cls-2" x="99.7" y="11.8" width="7.6" height="31.2" transform="translate(5 69.5) rotate(-37.9)"/>
        <polygon class="cls-1" points="84.8 29.9 100.5 49.1 80.8 74.9 91.8 74.9 107.5 53.9 106.4 53.9 106.4 83.9 114.4 83.9 114.4 53.9 95 29.9 84.8 29.9"/>
      </g>
    </g>
  </g>
</svg>